<?xml version="1.0" standalone="no"?><!DOCTYPE svg PUBLIC "-//W3C//DTD SVG 1.1//EN" "http://www.w3.org/Graphics/SVG/1.1/DTD/svg11.dtd"><svg t="1655784014700" class="icon" viewBox="0 0 1024 1024" version="1.1" xmlns="http://www.w3.org/2000/svg" p-id="26230" xmlns:xlink="http://www.w3.org/1999/xlink" width="64" height="64"><defs><style type="text/css"></style></defs><path d="M512 1024 512 1024c-31.288889 0-56.888889-25.6-56.888889-56.888889L455.111111 56.888889c0-31.288889 25.6-56.888889 56.888889-56.888889l0 0c31.288889 0 56.888889 25.6 56.888889 56.888889l0 910.222222C568.888889 998.4 543.288889 1024 512 1024z" p-id="26231"></path><path d="M0 512 0 512c0-31.288889 25.6-56.888889 56.888889-56.888889l910.222222 0c31.288889 0 56.888889 25.6 56.888889 56.888889l0 0c0 31.288889-25.6 56.888889-56.888889 56.888889L56.888889 568.888889C25.6 568.888889 0 543.288889 0 512z" p-id="26232"></path></svg>