<?xml version="1.0" standalone="no"?><!DOCTYPE svg PUBLIC "-//W3C//DTD SVG 1.1//EN" "http://www.w3.org/Graphics/SVG/1.1/DTD/svg11.dtd"><svg t="1656175110306" class="icon" viewBox="0 0 1024 1024" version="1.1" xmlns="http://www.w3.org/2000/svg" p-id="30161" xmlns:xlink="http://www.w3.org/1999/xlink" width="64" height="64"><defs><style type="text/css"></style></defs><path d="M877.312 689.408l-230.4-230.4 27.392-27.392a13.568 13.568 0 0 0 1.536-2.56A76.8 76.8 0 0 0 768 307.2l-174.08-174.08a76.8 76.8 0 0 0-109.056 0 76.8 76.8 0 0 0-13.568 89.6 17.152 17.152 0 0 0-3.584 2.304l-174.336 174.336a25.6 25.6 0 0 0-2.304 3.328 76.8 76.8 0 0 0-89.6 122.624l174.336 174.592a76.8 76.8 0 0 0 120.832-93.184l2.56-1.536 18.688-18.688 230.4 230.4a105.984 105.984 0 0 0 67.072 31.232h6.912a84.992 84.992 0 0 0 60.928-25.6 95.744 95.744 0 0 0-5.888-133.12zM520.96 169.216a25.6 25.6 0 0 1 18.432-7.424 25.6 25.6 0 0 1 18.176 7.424l174.336 174.336a25.6 25.6 0 0 1 7.68 18.432 25.6 25.6 0 0 1-7.68 18.176 25.6 25.6 0 0 1-36.352 0L520.96 204.8a25.6 25.6 0 0 1 0-35.584z m-72.192 494.336a25.6 25.6 0 0 1-18.432 7.424 25.6 25.6 0 0 1-18.176-7.424l-174.592-174.336a25.6 25.6 0 0 1 18.432-44.032 25.6 25.6 0 0 1 18.176 7.424l174.592 174.336a25.6 25.6 0 0 1 0 36.608z m14.08-94.72L329.728 435.2l174.336-174.336 133.376 133.376z m384 219.392a36.608 36.608 0 0 1-28.16 9.728 55.552 55.552 0 0 1-34.56-16.384l-230.4-230.4 55.808-56.064 230.4 230.4a45.568 45.568 0 0 1 7.936 62.72zM409.6 881.664H170.496a25.6 25.6 0 1 1 0-51.2H409.6a25.6 25.6 0 0 1 0 51.2z" p-id="30162"></path></svg>