<?xml version="1.0" standalone="no"?><!DOCTYPE svg PUBLIC "-//W3C//DTD SVG 1.1//EN" "http://www.w3.org/Graphics/SVG/1.1/DTD/svg11.dtd"><svg t="1656174140406" class="icon" viewBox="0 0 1024 1024" version="1.1" xmlns="http://www.w3.org/2000/svg" p-id="2501" xmlns:xlink="http://www.w3.org/1999/xlink" width="64" height="64"><defs><style type="text/css"></style></defs><path d="M385.262 462.482c-5.679 0-11.358-2.172-15.689-6.492-8.673-8.684-8.673-22.716 0-31.401l132.209-132.209c8.662-8.662 22.717-8.662 31.39 0 8.672 8.684 8.672 22.717 0 31.401l-132.209 132.209c-4.331 4.319-10.011 6.492-15.701 6.492zM439.13 614.276c-5.68 0-11.359-2.171-15.69-6.492-8.684-8.685-8.684-22.74 0-31.425l198.839-198.826c8.662-8.661 22.726-8.661 31.389 0 8.672 8.685 8.672 22.717 0 31.401l-198.849 198.85c-4.333 4.32-10.011 6.492-15.69 6.492zM511.62 849.806c-186.303 0-337.857-183.104-337.857-408.166 0-225.039 151.554-408.121 337.857-408.121 186.291 0 337.856 183.082 337.856 408.121 0.001 225.063-151.565 408.166-337.856 408.166zM511.62 92.274c-153.897 0-279.1 156.73-279.1 349.364 0 192.657 125.203 349.409 279.1 349.409s279.1-156.752 279.1-349.409c0-192.634-125.203-349.364-279.1-349.364zM511.62 990.058c-16.239 0-29.378-13.164-29.378-29.367l0-131.098c0-16.224 13.14-29.365 29.378-29.365 16.226 0 29.377 13.141 29.377 29.365l0 131.097c0 16.205-13.151 29.369-29.377 29.369z" p-id="2502"></path></svg>