<?xml version="1.0" standalone="no"?><!DOCTYPE svg PUBLIC "-//W3C//DTD SVG 1.1//EN" "http://www.w3.org/Graphics/SVG/1.1/DTD/svg11.dtd"><svg t="1656174181412" class="icon" viewBox="0 0 1024 1024" version="1.1" xmlns="http://www.w3.org/2000/svg" p-id="2655" xmlns:xlink="http://www.w3.org/1999/xlink" width="64" height="64"><defs><style type="text/css"></style></defs><path d="M949.331905 569.276495c-3.657296-48.948829-35.241642-92.183516-80.490196-112.342648l-40.647769-191.108572c-14.877849-69.88772-85.074607-126.727263-156.523893-126.727263L351.41 139.098012c-71.450309 0-141.66651 56.838519-156.523893 126.727263l-40.667212 191.108572c-45.249577 20.178575-76.813456 63.393819-80.471776 112.342648l-9.205663 122.597199c-3.945869 52.668547 26.01449 100.158141 73.031317 119.370715 10.809183 42.331108 48.989761 73.217558 94.198405 73.217558 42.002626 0 77.757968-26.221198 91.361801-64.052828l376.812041 0c13.604856 37.83163 49.359174 64.052828 91.342358 64.052828 45.208645 0 83.429131-30.886451 94.238314-73.217558 47.01785-19.212574 76.956719-66.681702 72.991408-119.370715L949.331905 569.276495zM854.949304 763.734348c-11.896958 2.774183-20.50808 13.08911-21.125133 25.296129-1.12973 22.830985-19.809161 40.72861-42.535769 40.72861-22.151509 0-40.359196-16.808828-42.332131-39.105646-1.233084-14.117532-13.068643-24.925692-27.248597-24.925692L301.351907 765.727749c-14.178931 0-25.995047 10.80816-27.248597 24.925692-1.972934 22.296819-20.159132 39.105646-42.331108 39.105646-22.707165 0-41.385573-17.877159-42.516326-40.72861-0.596588-12.20702-9.227152-22.521946-21.104667-25.296129-31.358195-7.274684-51.517327-35.139312-49.071625-67.771523l9.205663-122.576733c2.384303-31.851429 26.406416-60.763922 58.44204-70.278623 10.43977-3.123131 18.041912-12.123109 19.357883-22.974247 0.164752-1.561565 0.287549-3.14462 0.410346-4.685719 0.062422-0.801249 0.062422-1.622964 0.205685-2.363837l41.674145-195.875133c9.617032-45.229111 56.797587-83.409688 103.034655-83.409688l320.260048 0c46.215578 0 93.397157 38.180578 103.034655 83.409688l41.652655 195.85569c0.165776 0.821715 0.165776 1.622964 0.227174 2.424212 0.102331 1.520633 0.226151 3.042289 0.410346 4.583388 1.274016 10.850116 8.898671 19.911492 19.379373 23.035646 32.015158 9.514701 56.037271 38.427194 58.420551 70.278623l9.187243 122.576733C906.446165 728.57457 886.266567 756.459664 854.949304 763.734348zM300.858674 482.743676l421.342234 0c10.151197 0 18.885116-3.759627 24.248264-10.233062 5.794983-6.67912 8.137331-15.823384 6.616698-25.749454-0.122797-0.656963-0.245593-1.314948-0.390903-1.971911l-33.103956-143.846152c-4.152577-22.685675-26.591635-41.632189-49.689702-41.632189L353.218182 259.310907c-23.097044 0-45.578058 18.946514-49.728588 41.632189l-33.084513 143.846152c-0.164752 0.656963-0.287549 1.314948-0.38988 1.971911-1.541099 9.925047 0.801249 19.069311 6.26775 25.358551C281.994024 478.983026 290.707476 482.743676 300.858674 482.743676zM356.608396 314.013787l309.863257 0 26.220175 114.028033L330.367755 428.04182 356.608396 314.013787zM267.917424 576.428382c-34.131355 0-61.811788 27.679409-61.811788 61.811788 0 34.151821 27.680433 61.811788 61.811788 61.811788 34.132378 0 61.792345-27.659967 61.792345-61.811788C329.709769 604.107791 302.049802 576.428382 267.917424 576.428382zM755.162624 576.428382c-34.132378 0-61.811788 27.679409-61.811788 61.811788 0 34.151821 27.679409 61.811788 61.811788 61.811788 34.151821 0 61.810764-27.659967 61.810764-61.811788C816.973388 604.107791 789.314445 576.428382 755.162624 576.428382z" p-id="2656"></path></svg>