<?xml version="1.0" standalone="no"?><!DOCTYPE svg PUBLIC "-//W3C//DTD SVG 1.1//EN" "http://www.w3.org/Graphics/SVG/1.1/DTD/svg11.dtd"><svg t="1656175244657" class="icon" viewBox="0 0 1024 1024" version="1.1" xmlns="http://www.w3.org/2000/svg" p-id="31204" xmlns:xlink="http://www.w3.org/1999/xlink" width="64" height="64"><defs><style type="text/css"></style></defs><path d="M827 357.60909131a522.16363653 522.16363653 0 0 1-159.83181826 81.9 155.45454521 155.45454521 0 0 1-310.33636348 0A522.16363653 522.16363653 0 0 1 197 357.60909131V798.36363652A90 90 0 0 0 287 888.36363653h450a90 90 0 0 0 90-90V357.60909131z m0-85.58181826V225.63636348A90 90 0 0 0 737 135.63636347H287A90 90 0 0 0 197 225.63636348v46.34999999a457.93636347 457.93636347 0 0 0 169.97727305 102.06818174 155.49545479 155.49545479 0 0 1 290.0454539 0A457.89545479 457.89545479 0 0 0 827 272.02727305zM287 70.18181826h450A155.45454521 155.45454521 0 0 1 892.45454521 225.63636348v572.72727304a155.45454521 155.45454521 0 0 1-155.45454521 155.45454522H287A155.45454521 155.45454521 0 0 1 131.54545479 798.36363652V225.63636348A155.45454521 155.45454521 0 0 1 287 70.18181826z m225 450a90 90 0 1 0 0-180 90 90 0 0 0 0 180z" p-id="31205"></path></svg>