<?xml version="1.0" standalone="no"?><!DOCTYPE svg PUBLIC "-//W3C//DTD SVG 1.1//EN" "http://www.w3.org/Graphics/SVG/1.1/DTD/svg11.dtd"><svg t="1656004043177" class="icon" viewBox="0 0 1024 1024" version="1.1" xmlns="http://www.w3.org/2000/svg" p-id="2027" xmlns:xlink="http://www.w3.org/1999/xlink" width="64" height="64"><defs><style type="text/css"></style></defs><path d="M288 96.252c-52.327 0-101.168 24.028-137.527 67.659C115.508 205.869 96.252 261.303 96.252 320s19.256 114.131 54.221 156.089c13.874 16.648 29.569 30.432 46.578 41.126L160 797.92V800c0 70.44 57.56 127.748 128 127.748S416 870.44 416 800v-2.08l-37.052-280.703c17.009-10.695 32.705-24.479 46.579-41.127 34.965-41.958 54.221-97.392 54.221-156.089s-19.256-114.131-54.221-156.089c-36.359-43.632-85.2-67.66-137.527-67.66z m64.217 705.623c-0.996 34.565-29.431 62.377-64.233 62.377s-63.245-27.812-64.241-62.377l34.291-260.813a168.509 168.509 0 0 0 59.871 0.012l34.312 260.801zM288 480.252c-70.718 0-128.252-71.889-128.252-160.252S217.282 159.748 288 159.748 416.252 231.637 416.252 320 358.718 480.252 288 480.252zM895.5 96.5c-17.397 0-31.5 14.103-31.5 31.5v224.5c0 70.855-57.645 128.5-128.5 128.5S607 423.355 607 352.5V128c0-17.397-14.103-31.5-31.5-31.5S544 110.603 544 128v224.5c0 72.699 40.722 136.064 100.553 168.489L608 797.92V800c0 70.44 57.56 127.748 128 127.748S864 870.44 864 800v-2.08l-36.622-277.443C886.698 487.9 927 424.821 927 352.5V128c0-17.397-14.103-31.5-31.5-31.5z m-95.283 705.375c-0.995 34.565-29.431 62.377-64.232 62.377s-63.245-27.812-64.24-62.377l34.204-260.156a192.25 192.25 0 0 0 60.022-0.153l34.246 260.309z" p-id="2028"></path><path d="M684 385c17.673 0 32-14.327 32-32V128c0-17.673-14.327-32-32-32s-32 14.327-32 32v225c0 17.673 14.327 32 32 32zM788 385c17.673 0 32-14.327 32-32V128c0-17.673-14.327-32-32-32s-32 14.327-32 32v225c0 17.673 14.327 32 32 32z" p-id="2029"></path></svg>