<?xml version="1.0" standalone="no"?><!DOCTYPE svg PUBLIC "-//W3C//DTD SVG 1.1//EN" "http://www.w3.org/Graphics/SVG/1.1/DTD/svg11.dtd"><svg t="1656174648274" class="icon" viewBox="0 0 1024 1024" version="1.1" xmlns="http://www.w3.org/2000/svg" p-id="1610" xmlns:xlink="http://www.w3.org/1999/xlink" width="64" height="64"><defs><style type="text/css"></style></defs><path d="M199.49252 422.716534c4.616134 2.420119 9.567913 3.568269 14.437827 3.568269 11.255345 0 22.134113-6.110161 27.706015-16.776082 53.449329-102.211916 157.358911-165.716252 271.181259-165.716252 17.253966 0 31.233352-13.980409 31.233352-31.234375s-13.980409-31.234375-31.233352-31.234375c-137.1568 0-262.275425 76.345806-326.531891 199.24795C178.293709 395.854746 184.201256 414.725536 199.49252 422.716534z" p-id="1611"></path><path d="M783.979438 409.468812c5.582135 10.665921 16.45067 16.765849 27.706015 16.765849 4.869914 0 9.821693-1.149173 14.44806-3.568269 15.281031-7.990998 21.188578-26.872021 13.19758-42.153052-22.805402-43.586704-53.41863-81.684394-90.987271-113.232924-13.20679-11.092639-32.911574-9.374508-44.004213 3.843538-11.092639 13.20679-9.374508 32.911574 3.843538 44.004213C739.466642 341.398484 764.976642 373.141442 783.979438 409.468812z" p-id="1612"></path><path d="M397.739676 428.613848c-17.253966 0-31.234375 13.980409-31.234375 31.234375l0 28.672016c0 17.253966 13.980409 31.234375 31.234375 31.234375 17.253966 0 31.233352-13.980409 31.233352-31.234375l0-28.672016C428.973028 442.594257 414.993642 428.613848 397.739676 428.613848z" p-id="1613"></path><path d="M627.174136 428.613848c-17.253966 0-31.234375 13.980409-31.234375 31.234375l0 28.672016c0 17.253966 13.980409 31.234375 31.234375 31.234375 17.253966 0 31.233352-13.980409 31.233352-31.234375l0-28.672016C658.408511 442.594257 644.428102 428.613848 627.174136 428.613848z" p-id="1614"></path><path d="M512.155543 651.043776c42.163285 0 72.025407-29.057803 83.025948-46.230927 9.302877-14.528901 5.073552-33.846876-9.455349-43.149752-14.528901-9.323343-33.836643-5.063319-43.149752 9.455349-0.11154 0.172939-12.31242 17.457604-30.420847 17.457604-17.762549 0-28.966729-16.186657-29.780257-17.396205-9.181103-14.427594-28.29544-18.799158-42.824341-9.739828-14.650675 9.099239-19.155269 28.356838-10.044774 43.007513C440.252933 621.751636 469.75792 651.043776 512.155543 651.043776z" p-id="1615"></path><path d="M554.168402 279.389198c-17.009396-2.735297-33.033347 8.91709-35.737946 25.957185s8.91709 33.033347 25.957185 35.737946c6.558369 1.036609 13.074783 1.545192 19.521612 1.545192 61.522192-0.010233 116.049063-45.915749 126.196167-109.928668 11.20418-70.723761-35.931351-137.167033-105.058754-148.126642-17.009396-2.704598-33.033347 8.91709-35.737946 25.957185s8.91709 33.033347 25.957185 35.737946c35.117822 5.571902 58.959833 39.957037 53.144384 76.650751C622.593817 259.624039 589.275991 285.001009 554.168402 279.389198z" p-id="1616"></path><path d="M960.168206 585.515341c0-71.251787-57.973366-129.226177-129.226177-129.226177-17.253966 0-31.234375 13.980409-31.234375 31.234375 0 17.253966 13.980409 31.233352 31.234375 31.233352 36.815487 0 66.75845 29.942963 66.75845 66.75845s-29.942963 66.75845-66.75845 66.75845c-14.781658 0-27.089985 10.290367-30.333866 24.080441-1.124614 1.729387-2.096754 3.593851-2.882654 5.587252C750.773152 800.837384 638.943181 877.662097 512.817622 877.662097c-126.043694 0-241.157455-80.260975-286.453081-199.725834-0.920976-2.435469-2.186805-4.618181-3.605108-6.66684-4.759397-11.166317-15.8285-18.995633-28.737508-18.995633-36.815487 0-66.75845-29.942963-66.75845-66.75845s29.942963-66.75845 66.75845-66.75845c17.253966 0 31.234375-13.980409 31.234375-31.233352 0-17.253966-13.980409-31.234375-31.234375-31.234375-71.251787 0-129.226177 57.973366-129.226177 129.226177 0 64.222697 47.149856 117.504204 108.61986 127.423111 57.68684 136.374994 192.192254 227.191372 339.402013 227.191372 149.061944 0 281.279245-89.00308 339.523787-227.313146C913.423579 702.570313 960.168206 649.462768 960.168206 585.515341z" p-id="1617"></path></svg>