<?xml version="1.0" standalone="no"?><!DOCTYPE svg PUBLIC "-//W3C//DTD SVG 1.1//EN" "http://www.w3.org/Graphics/SVG/1.1/DTD/svg11.dtd"><svg t="1656174881600" class="icon" viewBox="0 0 1024 1024" version="1.1" xmlns="http://www.w3.org/2000/svg" p-id="26404" xmlns:xlink="http://www.w3.org/1999/xlink" width="64" height="64"><defs><style type="text/css"></style></defs><path d="M995.62 448.12c-15.12 0-27.38 12.25-27.38 27.38v9.12h-36.5V347.75c0-15.12-12.25-27.38-27.38-27.38S877 332.63 877 347.75v136.88h-45.62v-63.88c0-15.12-12.25-27.38-27.38-27.38s-27.38 12.25-27.38 27.38v63.88H731v-63.88c0-15.12-12.25-27.38-27.38-27.38s-27.38 12.25-27.38 27.38v63.88h-27.38v-9.12c0-15.12-12.25-27.38-27.38-27.38s-27.38 12.25-27.38 27.38v419.75c0 15.11 12.25 27.38 27.38 27.38H995.6c15.12 0 27.38-12.26 27.38-27.38V475.5c0.02-15.12-12.23-27.38-27.36-27.38z m-27.37 91.26v54.75H648.88v-54.75h319.37z m-319.37 328.5v-219h319.38v219H648.88zM548.42 126.65c-1.1-14.26-12.99-25.27-27.29-25.27H46.62c-14.3 0-26.2 11.01-27.29 25.27L4.77 315.87c-4.04 7-5.05 15.66-1.83 23.75L1.08 363.9c-0.05 0.7-0.08 1.4-0.08 2.1 0 146.74 112.32 267.67 255.5 281.49v220.39h-82.12c-15.12 0-27.38 12.26-27.38 27.38s12.26 27.38 27.38 27.38h219c15.12 0 27.38-12.26 27.38-27.38s-12.26-27.38-27.38-27.38h-82.13V647.49c143.18-13.82 255.5-134.75 255.5-281.49 0-0.7-0.03-1.4-0.08-2.1l-18.25-237.25z m-52.65 29.47l10.19 132.49c-2.27 1.52-4.42 3.29-6.22 5.54-0.61 0.77-63.1 76-225.4 27.63-95.45-35.61-169.52-34.43-212.96-28.04l10.59-137.62h423.8z m-211.89 438c-125.45 0-227.57-101.78-228.12-227.1l1.31-17.08c31.33-6.52 101.22-13.2 198.95 23.44 0.58 0.22 1.16 0.42 1.75 0.59 44.87 13.46 83.82 18.7 117.32 18.7 65.05-0.01 109.37-19.75 136.02-37.39l0.9 11.75c-0.56 125.31-102.68 227.09-228.13 227.09z" p-id="26405"></path></svg>