<?xml version="1.0" standalone="no"?><!DOCTYPE svg PUBLIC "-//W3C//DTD SVG 1.1//EN" "http://www.w3.org/Graphics/SVG/1.1/DTD/svg11.dtd"><svg t="1655954294188" class="icon" viewBox="0 0 1024 1024" version="1.1" xmlns="http://www.w3.org/2000/svg" p-id="12094" xmlns:xlink="http://www.w3.org/1999/xlink" width="64" height="64"><defs><style type="text/css"></style></defs><path d="M889.6 172.8a64 64 0 0 1 63.84 59.2l0.16 4.8v550.4a64 64 0 0 1-59.2 63.84l-4.8 0.16H286.72a64 64 0 0 1-46.176-19.648l-3.84-4.384-196.672-245.888a96 96 0 0 1-5.696-112.032l3.712-5.344 198.016-265.376a64 64 0 0 1 45.824-25.504L287.36 172.8H889.6z m0 64H287.36l-198.016 265.376a32 32 0 0 0-1.792 35.584l2.464 3.52L286.688 787.2H889.6V236.8z m-246.912 130.4l48.256 48.256-96.544 96.512 96.544 96.576-48.256 48.256-96.576-96.544-96.512 96.544-48.288-48.256L497.856 512l-96.544-96.544 48.288-48.256 96.544 96.512 96.544-96.512z" p-id="12095"></path></svg>