<?xml version="1.0" standalone="no"?><!DOCTYPE svg PUBLIC "-//W3C//DTD SVG 1.1//EN" "http://www.w3.org/Graphics/SVG/1.1/DTD/svg11.dtd"><svg t="1655783735242" class="icon" viewBox="0 0 1024 1024" version="1.1" xmlns="http://www.w3.org/2000/svg" p-id="22918" data-spm-anchor-id="a313x.7781069.0.i109" width="64" height="64" xmlns:xlink="http://www.w3.org/1999/xlink"><defs><style type="text/css"></style></defs><path d="M683.505911 480.221671c-123.691491 0-224.309725 100.628474-224.309725 224.309725S559.814421 928.841122 683.505911 928.841122s224.309725-100.628474 224.309726-224.309726-100.618235-224.309725-224.309726-224.309725z m0 405.892716c-100.117555 0-181.584015-81.456221-181.584014-181.584014s81.46646-181.584015 181.584014-181.584015 181.584015 81.456221 181.584015 181.584015S783.622442 886.114387 683.505911 886.114387z" fill="#2c2c2c" p-id="22919" data-spm-anchor-id="a313x.7781069.0.i105" class="selected"></path><path d="M160.117235 843.388676V159.779353c0-11.776729 9.586638-21.362343 21.362343-21.362344h555.433216c11.776729 0 21.362343 9.586638 21.362343 21.362344v256.35324h42.725711V159.779353c0-35.340426-28.747628-64.088054-64.088054-64.088054H181.479578c-35.340426 0-64.088054 28.747628-64.088054 64.088054v683.609323c0 35.340426 28.747628 64.088054 64.088054 64.088055h256.353241v-42.725711H181.479578c-11.776729 0.001024-21.362343-9.585614-21.362343-21.362344z" fill="#2c2c2c" p-id="22920" data-spm-anchor-id="a313x.7781069.0.i106" class=""></path><path d="M224.205289 266.593118h491.344137v42.72571H224.205289zM224.205289 480.221671h234.990897v42.725711H224.205289zM224.205289 693.849201h149.539476v42.725711H224.205289zM768.956309 666.478698h-49.23455l42.975539-42.975538c8.344665-8.344665 8.344665-21.863023 0-30.208713s-21.863023-8.344665-30.208713 0l-48.984721 48.983698-48.983698-48.983698c-8.344665-8.344665-21.863023-8.344665-30.208713 0-8.344665 8.344665-8.344665 21.863023 0 30.208713l42.975539 42.975538H598.05449c-11.807446 0-21.362343 9.565137-21.362344 21.362344s9.554898 21.362343 21.362344 21.362343h64.088054v27.371527h-32.044539c-11.808469 0-21.363367 9.565137-21.363367 21.362343s9.554898 21.362343 21.363367 21.362343h32.044539v21.362344c0 11.797207 9.554898 21.362343 21.362343 21.362343 11.808469 0 21.362343-9.565137 21.362344-21.362343v-21.362344h32.044539c11.807446 0 21.362343-9.565137 21.362343-21.362343s-9.554898-21.362343-21.362343-21.362343h-32.044539v-27.371527h64.088054c11.808469 0 21.362343-9.565137 21.362343-21.362343 0.002048-11.797207-9.55285-21.362343-21.361319-21.362344z" fill="#2c2c2c" p-id="22921" data-spm-anchor-id="a313x.7781069.0.i107" class="selected"></path></svg>