<?xml version="1.0" standalone="no"?><!DOCTYPE svg PUBLIC "-//W3C//DTD SVG 1.1//EN" "http://www.w3.org/Graphics/SVG/1.1/DTD/svg11.dtd"><svg t="1655804194513" class="icon" viewBox="0 0 1024 1024" version="1.1" xmlns="http://www.w3.org/2000/svg" p-id="2480" xmlns:xlink="http://www.w3.org/1999/xlink" width="64" height="64"><defs><style type="text/css"></style></defs><path d="M816 64h-80v64h80c26.5 0 48 21.5 48 48v672c0 26.5-21.5 48-48 48H208c-26.5 0-48-21.5-48-48V176c0-26.5 21.5-48 48-48h80V64h-80c-61.8 0-112 50.2-112 112v672c0 61.8 50.2 112 112 112h608c61.8 0 112-50.2 112-112V176c0-61.8-50.2-112-112-112z" p-id="2481"></path><path d="M384 64h256v64H384zM288 384h448v64H288zM288 608h288v64H288z" p-id="2482"></path></svg>