<?xml version="1.0" standalone="no"?><!DOCTYPE svg PUBLIC "-//W3C//DTD SVG 1.1//EN" "http://www.w3.org/Graphics/SVG/1.1/DTD/svg11.dtd"><svg t="1656173661527" class="icon" viewBox="0 0 1024 1024" version="1.1" xmlns="http://www.w3.org/2000/svg" p-id="21958" xmlns:xlink="http://www.w3.org/1999/xlink" width="64" height="64"><defs><style type="text/css"></style></defs><path d="M476.6 263.4s3.2-71.3-96.9-85.2c0.1 0.1-23.3 105.5 96.9 85.2z" p-id="21959"></path><path d="M904.2 435.5c-10.4-10.7-20.7-18.6-29.8-24.4 1.4-1.4 2.7-2.9 4.1-4.4 19.5-21.4 29-37.9 29.6-51.9 0.4-8.5-2.4-16.4-7.9-22.2-5.5-5.8-20.6-20.3-43.4-28.9-22.9-8.6-45.4-8-65 1.9-28.1 14.1-35.4 31.7-36.5 44.1-1.4 15.2 5.9 30 20 40.6 3 2.3 5.8 4.1 8.3 5.7 6.2 4 7.5 5 8.9 8.1 2 4.5 4.1 14.9 2.8 38.5-0.1 2.2-0.2 4.5-0.3 6.9-1.1 24.7-2.9 61.9-23.3 94.9-16 25.8-41.6 45.5-76.3 59 7.3-11 13.6-23.3 18.7-36.8 12.3-32.5 17.3-69.7 14.2-107.5-3.1-38.5-14.1-74-32-102.7-34.2-54.9-87.4-75.1-149.7-56.7-3.5 1-7.1 1.9-10.7 2.6 11.8-36.9 38.6-64.2 39-64.6l-14.1-14.1-14.1-14.2c-1.9 1.9-40.3 40.7-52.5 94.1-6-0.8-12-2.1-17.8-3.9-62.3-18.3-115.4 1.8-149.7 56.7-20.3 32.6-29.7 72.3-27.5 114.4-51.5-21.2-107.5-20.7-151.3 2.4-7.3 3.8-15 5.2-21.8 3.9-1.1-0.2-2.1-0.4-2.8-0.5-28-4.1-54.1 15.3-58.3 43.3-2.4 16.6 3.2 33 15.2 44.5-11.8 65.6 27 138.2 95.5 177.9 23.4 13.6 48.5 22.4 74.5 26.3 9.3 1.4 18.6 2.1 27.7 2.1 28.8 0 56-6.8 79-19.8 17.4 24.1 50.4 46.3 94.5 63.4 37 14.4 98.4 31.5 180.4 31.5 74.1 0 154.4-23.3 214.8-62.4 34.2-22.1 61.2-48.5 80.4-78.3 21.5-33.6 32.4-70.6 32.4-110.2 0.1-84.3-30-133.1-55.2-159.3z m-109-82.3c0.1-1 2.8-6 14.5-11.9 4.9-2.4 10.1-3.6 15.7-3.6 5.5 0 11.3 1.1 17.3 3.4 9.6 3.6 18.2 9.5 24.1 14.7-2 4-6.9 11.9-18.8 24.8-6 6.5-11.9 12.2-15.9 16.1-0.9-3.2-1.9-6.1-3-8.8-6.3-14.4-16.5-21-23.9-25.8-2.1-1.3-4.1-2.6-5.9-4-3.3-2.3-4.2-4.4-4.1-4.9z m-434.6 24.4c14-22.5 31.5-36.6 51.9-41.9 15.7-4.1 33.3-3.3 52.5 2.4 30.4 8.9 62.5 8.9 92.8 0 19.2-5.6 36.8-6.4 52.5-2.4 20.5 5.3 37.9 19.4 51.9 41.9 29.5 47.3 35.4 119.2 14.3 174.8-17.4 45.8-45.6 62.7-66.3 68.9l0.3 1c-22.1 2.2-46.2 3.1-72 2.7h-0.7l-104.6 5.3-2.7 0.9-1.5 0.6c-42.4-27.5-76.3-80.9-86.8-137.1-5.6-30.9-7.1-76.1 18.4-117.1z m-30.4 342.1c-21.3 9.9-47.2 13.2-74.1 9.3-20.7-3-41.5-10.4-60.3-21.3-27-15.7-49.4-38.4-63-64-13.1-24.7-17.6-51.3-12.6-74.9 2.5-11.9-1.9-24.5-11.7-32.8-3-2.6-4.4-6.4-3.9-10.3 0.8-5.6 5.7-9.7 11.2-9.7 0.5 0 1.1 0 1.7 0.1 0.1 0 0.3 0 0.4 0.1h0.2c15.7 3.1 32.9 0.4 48.3-7.7 39.1-20.6 91.6-17.2 137.5 8.9 11.8 52.5 40.3 102 78.2 135.7v4.4c-4.3 1.9-9 4.3-13.6 7.3-11.2 5.1-24.5 13.6-32.2 27.4-3.5 6.6-6.8 15.8-6.1 27.5z m494.7 30.1c-54.1 35-126.3 55.9-193 55.9-132.5 0-228.2-49-246.3-84.4-0.8-1.6-1.5-3.1-2-4.7-2.5-7.1-0.9-10.1-0.2-11.4 1-1.9 2.7-3.6 4.6-5.2 3.1-1.2 5.9-2.1 7.9-2.5l6-1.2 4.4-4.6 0.7-0.7c0.4-0.1 0.8-0.2 1.1-0.3l6-1.2 4.4-4.6c3-3.1 6-5.8 9.1-8 4.1-3 8.6-5.4 13.5-7.3l97.4-4.9c32.7 0.6 63.1-0.9 90.4-4.5l5.2-0.3 0.8-0.6c0.8-0.1 1.7-0.2 2.5-0.4 80.5-12.2 137.1-43.7 168.2-93.8 25.9-41.8 28-87.1 29.3-114.1 0.1-2.3 0.2-4.5 0.3-6.6 0.2-2.9 0.3-5.7 0.3-8.4 4.5 1.6 23.1 9.1 41.4 28.7 28.2 30.3 42.6 74 42.6 129.9 0 43-16.4 104.6-94.6 155.2z" p-id="21960"></path></svg>