<?xml version="1.0" standalone="no"?><!DOCTYPE svg PUBLIC "-//W3C//DTD SVG 1.1//EN" "http://www.w3.org/Graphics/SVG/1.1/DTD/svg11.dtd"><svg t="1656174584045" class="icon" viewBox="0 0 1024 1024" version="1.1" xmlns="http://www.w3.org/2000/svg" p-id="1577" xmlns:xlink="http://www.w3.org/1999/xlink" width="64" height="64"><defs><style type="text/css"></style></defs><path d="M860.687 332.462l-48.693 0 4.335-88.817c1.26-25.866-7.645-50.19-25.077-68.492-17.968-18.864-42.799-29.24-69.916-29.24l-420.158 0c-27.118 0-51.941 10.375-69.917 29.24-17.43 18.302-26.338 42.626-25.077 68.492l4.345 88.817-48.703 0c-40.974 0-69.598 34.1-69.598 82.895l0 345.615c0 45.855 25.848 79.558 62.272 83.656-0.009 0.291-0.083 0.544-0.083 0.798 0 17.197 13.922 31.09 31.09 31.09l77.724 0c17.168 0 31.088-13.895 31.088-31.055l435.277 0c0 17.161 13.913 31.055 31.09 31.055l77.724 0c17.168 0 31.09-13.895 31.09-31.09 0-0.325-0.092-0.618-0.099-0.98 35.986-4.861 62.279-38.89 62.279-83.476l0-345.615c-0.001-48.032-29.858-82.894-70.997-82.894zM260.131 798.809l-98.303 0c-15.772 0-22.955-19.626-22.955-37.837l0-345.615c0-16.725 6.005-36.278 22.955-36.278l94.194 0c1.189 0 2.332 0.29 3.492 0.507 13.994 2.394 25.276 18.756 25.276 38.056 0 0.543 0.019 1.088 0.064 1.632l14.539 203.882 12.298 175.654-51.56 0zM664.063 798.809l-305.629 0-9.795-139.923 325.21 0-9.787 139.923zM685.783 491.176c-0.109 0.69-0.299 1.342-0.343 2.067l-8.336 119.026-331.731 0-8.362-119.534c-0.046-0.58-0.209-1.088-0.291-1.669l-5.306-74.332c-0.417-46.109-33.438-83.475-74.197-84.201l-4.452-91.175c-0.635-12.969 3.728-25.068 12.262-34.029 9.088-9.541 21.921-14.783 36.151-14.783l420.158 0c14.229 0 27.063 5.242 36.15 14.783 8.534 8.961 12.895 21.06 12.262 34.029l-4.444 91.175c-40.766 0.726-73.789 38.091-74.207 84.201l-5.315 74.441zM885.04 760.972c0 18.792-8.363 37.837-24.353 37.837l-149.872 0 11.31-161.543 0-0.036 15.544-217.957c0.037-0.543 0.055-1.088 0.055-1.632 0-19.3 11.273-35.661 25.276-38.056 1.162-0.218 2.314-0.507 3.502-0.507l94.185 0c16.825 0 24.353 18.211 24.353 36.278l0 345.615z" p-id="1578"></path></svg>