<?xml version="1.0" standalone="no"?><!DOCTYPE svg PUBLIC "-//W3C//DTD SVG 1.1//EN" "http://www.w3.org/Graphics/SVG/1.1/DTD/svg11.dtd"><svg t="1656174075116" class="icon" viewBox="0 0 1024 1024" version="1.1" xmlns="http://www.w3.org/2000/svg" p-id="2193" xmlns:xlink="http://www.w3.org/1999/xlink" width="64" height="64"><defs><style type="text/css"></style></defs><path d="M898.897236 262.510786 718.143499 262.510786c11.120268-18.983353 16.859993-40.910759 16.859993-62.33265 0-56.446593-38.850843-113.585965-113.166409-113.585965-34.351366 0-63.551408 11.961426-86.803995 35.59059-12.486382 12.656251-21.98778 27.813462-29.43131 43.706431-7.272637-15.872502-16.60826-30.987758-28.884864-43.642986-23.041786-23.673166-52.095495-35.655058-86.426395-35.655058-44.021609 0-70.573335 19.635199-85.101213 36.117592-18.10024 20.518313-28.065196 48.015573-28.065196 77.468372 0 21.422915 5.760191 43.349297 16.881482 62.33265L125.360637 262.509762c-14.925944 0-27.01426 12.109806-27.01426 27.03575l0 245.693772c0 14.926968 12.087293 27.03575 27.01426 27.03575l36.685527 0 0 346.07704c0 14.927991 12.088316 27.036773 27.01426 27.036773l248.76369 0 148.632155 0 248.741177 0c14.927991 0 27.015284-12.108782 27.015284-27.036773L862.212732 562.27708l36.684504 0c14.926968 0 27.01426-12.108782 27.01426-27.03575L925.911496 289.547559C925.911496 274.620591 913.824203 262.510786 898.897236 262.510786zM573.547263 160.108534c12.887518-13.096273 28.675086-19.487843 48.288796-19.487843 43.641963 0 59.137889 32.080649 59.137889 59.557444 0 16.524348-5.550413 32.460296-15.243169 43.706431-10.614755 12.341073-25.331945 18.605753-43.789319 18.626219l-86.23606-0.692778C538.986119 230.347249 548.803719 185.210235 573.547263 160.108534zM331.17412 200.178135c0-16.270569 5.151323-31.071669 14.56881-41.729403 10.407024-11.815093 25.39539-17.828041 44.547589-17.828041 19.404955 0 34.961256 6.28617 47.575552 19.21462 24.470321 25.080212 33.80492 70.869071 36.727483 102.675474l-36.769438 0-47.532573 0C343.620593 262.510786 331.17412 223.325321 331.17412 200.178135zM152.374898 316.561819l237.916645 0 20.497846 0 0 191.665251L152.374898 508.22707 152.374898 316.561819zM216.074685 562.27708l194.71368 0 0 319.064826L216.074685 881.341906 216.074685 562.27708zM464.838376 881.341906 464.838376 316.561819l37.862329 0 56.720839 0 0 564.780087L464.838376 881.341906zM808.163745 881.341906l-194.694237 0L613.469508 562.27708l194.694237 0L808.163745 881.341906zM871.862509 508.22707 613.469508 508.22707l0-191.665251 8.135284 0 0.232291 0 250.025427 0L871.862509 508.22707z" p-id="2194"></path></svg>