<?xml version="1.0" standalone="no"?><!DOCTYPE svg PUBLIC "-//W3C//DTD SVG 1.1//EN" "http://www.w3.org/Graphics/SVG/1.1/DTD/svg11.dtd"><svg t="1656173930505" class="icon" viewBox="0 0 1024 1024" version="1.1" xmlns="http://www.w3.org/2000/svg" p-id="1577" xmlns:xlink="http://www.w3.org/1999/xlink" width="64" height="64"><defs><style type="text/css"></style></defs><path d="M218.009757 798.59532c5.626137 6.426363 13.675464 10.018168 22.092158 10.018168 1.189082 0 2.378164-0.092098 3.613294-0.230244 9.651824-1.188058 18.09103-7.065929 22.550599-15.711843l143.854339-279.769868 128.575354 125.761262c6.312776 6.130627 14.957667 9.172917 23.784706 8.211009 8.736988-0.959861 16.60519-5.786797 21.407566-13.173021L752.167406 375.863437l27.877931 20.720927c11.915377 8.849552 25.179472 13.515828 38.376029 13.515828 26.780947 0 48.598858-18.662035 55.552224-47.524386l49.720402-205.969025c5.875824-24.287149-0.686638-39.268352-7.226588-47.569412-13.905708-17.678638-39.977503-20.514219-65.180512-4.825912L673.927461 214.217896c-18.685571 11.57257-29.845749 29.433356-30.66951 48.987714-0.822738 19.554358 8.827039 38.262442 26.438139 51.389414l35.174104 26.117844L554.200636 571.588143l-131.433448-128.577401c-6.678096-6.517437-16.032138-9.490142-25.272593-7.981788-9.193383 1.486864-17.152658 7.272637-21.429055 15.552208L233.698065 727.355813l-79.085196-90.085738L154.612868 283.85593c0-36.041868 29.320793-65.36266 65.363683-65.36266l387.856585 0c16.237823 0 29.387307-13.173021 29.387307-29.388331 0-16.237823-13.149485-29.411867-29.387307-29.411867L219.976552 159.693072c-68.450998 0-124.139322 55.712883-124.139322 124.161834l0 521.165754c0 68.473511 55.688323 124.162858 124.139322 124.162858l532.829398 0c68.452022 0 124.139322-55.689347 124.139322-124.162858L876.945271 471.78202c0-16.21531-13.150508-29.389354-29.388331-29.389354s-29.388331 13.174044-29.388331 29.389354l0 333.240687c0 36.043914-29.319769 65.386196-65.363683 65.386196L219.976552 870.408903c-36.042891 0-65.363683-29.343305-65.363683-65.386196l0-78.626755L218.009757 798.59532zM702.857351 265.697361c0.480954-0.433882 1.167592-0.959861 2.059915-1.508353l155.655106-96.535637-43.72792 181.086311c-0.160659 0.595564-0.319272 1.098008-0.458441 1.532913-0.364297-0.229221-0.776689-0.525979-1.257643-0.892323l-110.348224-81.989339C703.956382 266.750343 703.314769 266.177292 702.857351 265.697361z" p-id="1578"></path></svg>