<?xml version="1.0" standalone="no"?><!DOCTYPE svg PUBLIC "-//W3C//DTD SVG 1.1//EN" "http://www.w3.org/Graphics/SVG/1.1/DTD/svg11.dtd"><svg t="1656174975798" class="icon" viewBox="0 0 1024 1024" version="1.1" xmlns="http://www.w3.org/2000/svg" p-id="26735" xmlns:xlink="http://www.w3.org/1999/xlink" width="64" height="64"><defs><style type="text/css"></style></defs><path d="M511.630075 64.101947c-246.795872 0-447.554222 200.779839-447.554222 447.555246 0 246.775406 200.759373 447.554222 447.554222 447.554222 246.77643 0 447.534779-200.778816 447.534779-447.554222C959.163831 264.881786 758.406504 64.101947 511.630075 64.101947zM511.630075 906.040425c-217.46894 0-394.381186-176.933735-394.381186-394.382209 0-217.449497 176.912245-394.382209 394.381186-394.382209 217.469963 0 394.382209 176.932712 394.382209 394.382209C906.012284 729.105666 729.099015 906.040425 511.630075 906.040425zM396.039453 656.30664c49.843198 0 90.39887-40.556695 90.39887-90.420359L486.438323 378.570081c0-49.864688-40.556695-90.420359-90.39887-90.420359-49.863664 0-90.421382 40.556695-90.421382 90.420359l0 187.315176C305.618071 615.749946 346.175789 656.30664 396.039453 656.30664zM358.770642 378.570081c0-20.557198 16.71059-37.248346 37.268812-37.248346 20.516266 0 37.226856 16.691147 37.226856 37.248346l0 187.315176c0 20.557198-16.71059 37.247322-37.226856 37.247322-20.558222 0-37.268812-16.691147-37.268812-37.247322L358.770642 378.570081zM627.220696 288.149722c-49.842175 0-90.420359 40.556695-90.420359 90.420359l0 143.138024 0 34.600029 0 9.576099c0 49.864688 40.578184 90.420359 90.420359 90.420359 49.864688 0 90.420359-40.556695 90.420359-90.420359l0-44.177152c0-49.863664-40.556695-90.420359-90.420359-90.420359-13.297864 0-25.851784 3.060709-37.225833 8.250918l0-60.969607c0-20.557198 16.71059-37.248346 37.225833-37.248346 20.558222 0 37.268812 16.691147 37.268812 37.248346l0 26.349111c0 14.683421 11.872399 26.596751 26.577309 26.596751 14.684444 0 26.575262-11.913331 26.575262-26.596751l0-26.349111C717.641055 328.705394 677.084361 288.149722 627.220696 288.149722zM627.220696 484.460784c20.558222 0 37.268812 16.71059 37.268812 37.247322l0 44.177152c0 20.557198-16.71059 37.247322-37.268812 37.247322-20.515243 0-37.225833-16.691147-37.225833-37.247322l0-9.576099 0-34.600029C589.994863 501.172397 606.705454 484.460784 627.220696 484.460784zM685.379281 699.717336 337.881892 699.717336c-14.684444 0-26.596751 11.891841-26.596751 26.575262 0 14.684444 11.912307 26.576285 26.596751 26.576285l347.497389 0c14.684444 0 26.595728-11.891841 26.595728-26.576285C711.975009 711.6102 700.062701 699.717336 685.379281 699.717336z" p-id="26736"></path></svg>