<?xml version="1.0" standalone="no"?><!DOCTYPE svg PUBLIC "-//W3C//DTD SVG 1.1//EN" "http://www.w3.org/Graphics/SVG/1.1/DTD/svg11.dtd"><svg t="1656174282341" class="icon" viewBox="0 0 1024 1024" version="1.1" xmlns="http://www.w3.org/2000/svg" p-id="2963" xmlns:xlink="http://www.w3.org/1999/xlink" width="64" height="64"><defs><style type="text/css"></style></defs><path d="M811.408649 64.432475l-11.989055 0c-49.300846 0-91.162256 32.432667-105.4691 77.05905L277.8701 141.491525c-8.819876 0-17.049305 4.450359-21.88545 11.846816L104.712365 384.879788c-5.243421 8.046257-5.67014 18.289552-1.096984 26.721595 4.551666 8.433066 13.370519 13.696953 22.962991 13.696953L373.970832 425.298336l0 426.931532c0 58.810431 47.856961 106.646925 106.667392 106.646925l40.275285 0c58.811454 0 106.667392-47.836495 106.667392-106.646925L627.5809 425.299359l66.36857 0c14.306844 44.645826 56.169277 77.078493 105.4691 77.078493l11.989055 0c61.065797 0 110.751407-49.685609 110.751407-110.751407L922.159032 175.163415C922.160055 114.117061 872.474446 64.432475 811.408649 64.432475zM291.993772 193.736423l396.693858 0 0 179.314968L174.862052 373.051391 291.993772 193.736423zM575.333956 852.230891c0 29.995151-24.405853 54.399981-54.42147 54.399981l-40.275285 0c-29.994128 0-54.401004-24.405853-54.401004-54.399981L426.236196 425.299359l149.09776 0L575.333956 852.230891zM869.891621 391.626445c0 32.270984-26.233478 58.505485-58.482973 58.505485l-11.989055 0c-32.229029 0-58.485019-26.234501-58.485019-58.505485L740.934574 175.163415c0-32.229029 26.25599-58.485019 58.485019-58.485019l11.989055 0c32.250518 0 58.482973 26.25599 58.482973 58.485019L869.891621 391.626445z" p-id="2964"></path></svg>