<?xml version="1.0" standalone="no"?><!DOCTYPE svg PUBLIC "-//W3C//DTD SVG 1.1//EN" "http://www.w3.org/Graphics/SVG/1.1/DTD/svg11.dtd"><svg t="1656174334193" class="icon" viewBox="0 0 1024 1024" version="1.1" xmlns="http://www.w3.org/2000/svg" p-id="3271" xmlns:xlink="http://www.w3.org/1999/xlink" width="64" height="64"><defs><style type="text/css"></style></defs><path d="M755.870752 242.884796l-47.152926 0 0-34.556027c0-54.628178-44.720527-99.088786-99.670024-99.088786L414.186765 109.239983c-54.948473 0-99.650581 44.722574-99.650581 99.691513l0 33.9533L267.383258 242.884796c-76.848249 0-139.350768 62.522985-139.350768 139.370211l0 395.248949c0 76.826759 62.502519 139.349745 139.350768 139.349745l488.487493 0c76.848249 0 139.351791-62.522985 139.351791-139.349745L895.222543 382.255007C895.222543 305.406758 832.719001 242.884796 755.870752 242.884796zM373.14093 208.931496c0-22.662139 18.423605-41.066301 41.045835-41.066301l194.861036 0c23.023366 0 41.066301 17.759479 41.066301 40.463574l0 34.556027L373.14093 242.884796 373.14093 208.931496zM836.615751 777.502933c0 44.519959-36.222993 80.742952-80.744999 80.742952L267.383258 858.245885c-44.522006 0-80.744999-36.222993-80.744999-80.742952L186.638259 382.255007c0-44.520983 36.222993-80.744999 80.744999-80.744999l488.487493 0c44.522006 0 80.744999 36.224016 80.744999 80.744999L836.615751 777.502933zM637.879454 514.050706l-60.433394 0 0-60.452837c0-17.720593-14.506389-32.225959-32.226982-32.225959l-67.183122 0c-17.71957 0-32.225959 14.504342-32.225959 32.225959l0 60.452837-60.432371 0c-17.740036 0-32.246425 14.505365-32.246425 32.245402l0 67.143213c0 17.740036 14.505365 32.246425 32.246425 32.246425l60.432371 0 0 60.45386c0 17.718547 14.506389 32.224935 32.225959 32.224935l67.183122 0c17.720593 0 32.226982-14.506389 32.226982-32.224935l0-60.45386 60.433394 0c17.740036 0 32.263821-14.506389 32.263821-32.246425l0-67.143213C670.143275 528.556071 655.618467 514.050706 637.879454 514.050706z" p-id="3272"></path></svg>