<?xml version="1.0" standalone="no"?><!DOCTYPE svg PUBLIC "-//W3C//DTD SVG 1.1//EN" "http://www.w3.org/Graphics/SVG/1.1/DTD/svg11.dtd"><svg t="1656174711663" class="icon" viewBox="0 0 1024 1024" version="1.1" xmlns="http://www.w3.org/2000/svg" p-id="8386" xmlns:xlink="http://www.w3.org/1999/xlink" width="64" height="64"><defs><style type="text/css"></style></defs><path d="M476.332896 216.797117c61.948128 0 112.376976-48.63696 112.376976-108.409225S538.302356-0.021332 476.332896-0.021332s-112.376976 48.63696-112.376977 108.409224c0.021332 59.772264 50.407516 108.409224 112.376977 108.409225z m0-174.154449c38.440264 0 69.712976 29.480824 69.712976 65.745224s-31.272712 65.745224-69.712976 65.745225S406.61992 144.630961 406.61992 108.387892s31.272712-65.745224 69.712976-65.745224zM811.437285 558.642418c0.682624-1.663896 1.514572-3.242464 1.983876-4.991688a39.293544 39.293544 0 0 0-6.164948-32.680624c-8.980772-12.884528-24.937108-21.673312-44.199904-24.489136l-96.271316-47.78368-127.906673-132.471721c-18.77216-47.229048-84.560048-90.938316-163.019145-82.02154-94.223444 10.793992-152.651793 101.668312-160.075328 136.140824l-33.981876 163.829761a21.182676 21.182676 0 0 0 0.298648 9.876716l60.113576 223.047393-89.80772 183.711185a22.142616 22.142616 0 0 0-1.38658 3.647772 45.287836 45.287836 0 0 0 6.591588 38.034956c11.327292 16.74562 32.680624 27.966252 58.577672 30.803408 4.351728 0.469304 8.660792 0.703956 12.90586 0.703956 36.435056 0 67.7291-17.342916 76.411224-43.346624l96.612629-199.624857a21.204008 21.204008 0 0 0 1.514572-14.377768l-28.926193-117.773972c7.167552-0.810616 14.29244-1.962544 21.332001-3.41312l52.946024 120.5258-14.207112 189.300169a49.746224 49.746224 0 0 0 12.287232 37.885632c12.05258 13.75914 31.827344 21.801304 55.612524 22.675916 46.439764 2.069204 79.525696-18.046872 82.533508-50.87682l3.114472-208.562965a21.246672 21.246672 0 0 0-2.090536-9.49274l-100.452388-210.781493 5.524988-23.35854-41.512072-9.81272-7.25288 30.654084a21.54532 21.54532 0 0 0 1.49324 14.100452l101.561652 213.042685-2.98648 201.907381c-0.277316 2.87982-12.543216 11.241964-38.376268 10.55934-11.604608-0.447972-21.01202-3.477116-25.129096-8.191488a7.25288 7.25288 0 0 1-1.834552-6.143616l14.655084-195.017145a21.459992 21.459992 0 0 0-1.749224-10.196696l-62.332104-141.857801a21.332 21.332 0 0 0-25.513072-11.903256 196.553049 196.553049 0 0 1-54.524593 7.828844 21.374664 21.374664 0 0 0-20.649376 26.409016l33.213924 135.159553-93.946128 194.142533a22.355936 22.355936 0 0 0-1.343916 3.498448c-1.81322 6.442264-20.030748 16.574964-44.221236 13.887132-14.61242-1.5999-24.553132-7.338208-27.902256-12.287232a5.055684 5.055684 0 0 1-0.874612-1.791888l91.983584-188.148241c2.261192-4.650376 2.77316-9.940712 1.429244-14.9324l-60.881528-225.863217 32.915276-158.688749c4.543716-21.140012 51.83676-94.415432 123.1923-102.585588 63.185384-7.274212 109.96646 28.90486 119.416537 57.80972a21.332 21.332 0 0 0 4.927692 8.191488l133.580984 138.380685c1.70656 1.770556 3.690436 3.1998 5.866301 4.287732l102.82024 51.047476a21.054684 21.054684 0 0 0 7.35954 2.1332c8.447472 0.85328 13.780472 3.62644 16.21232 5.567652-3.391788 2.687832-12.244568 6.591588-23.977168 5.695644l-115.491449-33.853884-129.719892-127.77868-29.928796 30.3981 133.516988 131.554444c2.517176 2.45318 5.610316 4.2664 8.980772 5.269004l104.654793 30.675416c-12.58588 14.697748-20.47872 33.320584-20.47872 53.820636h42.664c0-23.337208 20.37206-42.322688 45.415828-42.322688 25.0651 0 45.43716 19.006812 45.43716 42.322688v366.611754h42.664V639.746682c0-38.461596-26.792992-70.672916-63.206716-81.104264z" p-id="8387"></path><path d="M506.283024 109.497156h21.332c0-27.646272-23.294544-50.1302-51.94342-50.1302v21.332c16.894944 0 30.61142 12.927192 30.61142 28.7982z" p-id="8388"></path></svg>