<?xml version="1.0" standalone="no"?><!DOCTYPE svg PUBLIC "-//W3C//DTD SVG 1.1//EN" "http://www.w3.org/Graphics/SVG/1.1/DTD/svg11.dtd"><svg t="1656173958006" class="icon" viewBox="0 0 1024 1024" version="1.1" xmlns="http://www.w3.org/2000/svg" p-id="1731" xmlns:xlink="http://www.w3.org/1999/xlink" width="64" height="64"><defs><style type="text/css"></style></defs><path d="M682.388157 173.223227c-33.056883-53.617152-92.142583-89.550549-159.615301-89.550549-64.940035 0-122.263601 33.219589-155.928329 83.534532C194.871781 198.583824 63.999105 349.145935 63.999105 530.050098l0 40.915875c0 203.612351 165.651784 369.245715 369.242645 369.245715l156.61906 0c203.613374 0 369.262088-165.633365 369.262088-369.245715l0-40.915875C959.121875 358.463138 841.274864 214.403115 682.388157 173.223227zM522.771833 135.77022c74.704422 0 135.472438 60.768015 135.472438 135.471414 0 13.794168-2.14792 27.061332-6.03546 39.579437L393.337925 310.821071c-3.847631-12.518105-6.03546-25.78527-6.03546-39.579437C387.301442 196.538235 448.069457 135.77022 522.771833 135.77022zM907.025357 570.965973c0 174.888146-142.277424 317.185013-317.164546 317.185013L433.24175 888.150986c-174.888146 0-317.16557-142.296867-317.16557-317.185013l0-40.915875c0-142.722562 94.79704-263.609817 224.718041-303.290561-3.5038 14.300704-5.569856 29.128411-5.569856 44.482097 0 13.59053 1.559519 26.798343 4.314259 39.579437l-26.332738 0c-13.691837 0-24.793686 11.100826-24.793686 24.793686 0 13.69286 11.100826 24.813129 24.793686 24.813129l413.238672 0c13.712303 0 24.793686-11.119245 24.793686-24.813129 0-13.691837-11.081383-24.793686-24.793686-24.793686l-20.397562 0c2.755764-12.781094 4.295839-25.988908 4.295839-39.579437 0-12.153808-1.25662-24.023136-3.485381-35.549657 117.078509 46.669926 200.167902 160.830989 200.167902 294.358121L907.025357 570.965973zM610.722954 591.850629c13.71435 0 24.793686-11.120268 24.793686-24.813129 0-13.693884-11.078313-24.793686-24.793686-24.793686l-52.341089 0 49.707099-49.708122c9.683547-9.682523 9.683547-25.381064 0-35.062564-9.6815-9.702989-25.399483-9.702989-35.062564 0l-61.477166 61.476143-61.454654-61.476143c-9.682523-9.702989-25.381064-9.702989-35.063587 0-9.6815 9.6815-9.6815 25.38004 0 35.062564l49.709145 49.708122-52.361555 0c-13.69286 0-24.793686 11.099802-24.793686 24.793686 0 13.69286 11.100826 24.813129 24.793686 24.813129l74.379011 0 0 49.565882-74.379011 0c-13.69286 0-24.793686 11.100826-24.793686 24.793686 0 13.712303 11.100826 24.813129 24.793686 24.813129l74.379011 0 0 66.113767c0 13.694907 11.100826 24.793686 24.792663 24.793686 13.694907 0 24.793686-11.098779 24.793686-24.793686l0-66.113767 74.380034 0c13.71435 0 24.793686-11.100826 24.793686-24.813129 0-13.693884-11.078313-24.793686-24.793686-24.793686l-74.380034 0 0-49.565882L610.722954 591.850629z" p-id="1732"></path></svg>