<?xml version="1.0" standalone="no"?><!DOCTYPE svg PUBLIC "-//W3C//DTD SVG 1.1//EN" "http://www.w3.org/Graphics/SVG/1.1/DTD/svg11.dtd"><svg t="1656174040880" class="icon" viewBox="0 0 1024 1024" version="1.1" xmlns="http://www.w3.org/2000/svg" p-id="2039" xmlns:xlink="http://www.w3.org/1999/xlink" width="64" height="64"><defs><style type="text/css"></style></defs><path d="M942.683485 501.259378 830.998823 294.071595c-29.132504-73.609485-100.837616-125.851313-184.658673-125.851313L374.575606 168.220283c-89.971128 0-166.047804 60.149938-190.391235 142.339846L81.370751 501.259378c-18.193361 33.775244-22.165836 72.594365-11.155061 109.344361 10.992355 36.732599 35.662221 66.98767 69.420069 85.200474 13.785981 7.41897 28.750811 12.300141 44.096311 14.910595 23.780613 83.078137 100.238982 144.117328 190.844559 144.117328l271.764544 0c90.388637 0 166.718069-60.730153 190.698227-143.482879 16.489556-2.431376 32.614815-7.581676 47.381124-15.545044 33.774221-18.212804 58.426691-48.467875 69.418023-85.200474C964.84932 573.853743 960.876845 535.035646 942.683485 501.259378zM161.764755 654.755308c-22.801309-12.298094-39.452547-32.724309-46.871517-57.539484-7.437389-24.794709-4.753257-51.007721 7.52744-73.826426l53.510728-99.240235 0 232.021378c0 1.595334 0.199545 3.120061 0.23536 4.697999C171.233408 659.199527 166.3901 657.239895 161.764755 654.755308zM798.366611 656.17054c0 83.822081-68.204381 152.008043-152.025439 152.008043L374.575606 808.178583c-83.822081 0-152.008043-68.185962-152.008043-152.008043L222.567563 366.882901c0-83.839477 68.185962-152.025439 152.008043-152.025439l271.764544 0c83.821057 0 152.025439 68.185962 152.025439 152.025439L798.365588 656.17054zM909.16202 597.215824c-7.419993 24.815175-24.071232 45.24139-46.873564 57.539484-5.604648 3.009544-11.536754 5.332449-17.576307 7.16519 0.054235-1.941212 0.289596-3.809769 0.289596-5.749958L845.001745 418.326551l56.631812 105.062847C913.914254 546.209126 916.598386 572.421114 909.16202 597.215824zM314.679447 401.964908c-25.831318 0-46.76407 20.932752-46.76407 46.74565 0 25.830295 20.932752 46.763047 46.76407 46.763047 25.812899 0 46.74565-20.932752 46.74565-46.763047C361.425098 422.897659 340.492346 401.964908 314.679447 401.964908zM706.254727 401.964908c-25.830295 0-46.763047 20.932752-46.763047 46.74565 0 25.830295 20.932752 46.763047 46.763047 46.763047 25.811876 0 46.744627-20.932752 46.744627-46.763047C752.999354 422.897659 732.066603 401.964908 706.254727 401.964908zM615.667569 692.774203c-42.738383 0-77.509305-34.754548-77.509305-77.490885 0-2.90312-0.599657-5.641487-1.561565-8.199753 15.746636-9.105379 26.466792-25.901926 26.466792-45.403073 0-29.040407-23.545252-52.585659-52.605102-52.585659-29.040407 0-52.603055 23.545252-52.603055 52.585659 0 19.501146 10.720156 36.297694 26.465768 45.403073-0.961908 2.558265-1.561565 5.296633-1.561565 8.199753 0 42.736337-34.771945 77.490885-77.490885 77.490885-12.879332 0-23.327288 10.44898-23.327288 23.328311 0 12.859889 10.447956 23.308869 23.327288 23.308869 44.350091 0 83.240843-23.454178 105.189737-58.554604 21.967314 35.100426 60.839647 58.554604 105.20918 58.554604 12.878309 0 23.308869-10.44898 23.308869-23.308869C638.976438 703.223183 628.544855 692.774203 615.667569 692.774203z" p-id="2040"></path></svg>