<?xml version="1.0" standalone="no"?><!DOCTYPE svg PUBLIC "-//W3C//DTD SVG 1.1//EN" "http://www.w3.org/Graphics/SVG/1.1/DTD/svg11.dtd"><svg t="1655952124364" class="icon" viewBox="0 0 1024 1024" version="1.1" xmlns="http://www.w3.org/2000/svg" p-id="2072" width="64" height="64" xmlns:xlink="http://www.w3.org/1999/xlink"><defs><style type="text/css"></style></defs><path d="M873.813333 989.866667c-3.413333 0-8.533333-1.706667-11.946666-3.413334L512 805.546667 162.133333 986.453333c-8.533333 3.413333-17.066667 3.413333-25.6-1.706666-6.826667-5.12-11.946667-13.653333-11.946666-22.186667V104.106667C124.586667 66.56 157.013333 34.133333 196.266667 34.133333h633.173333c39.253333 0 71.68 32.426667 71.68 71.68v858.453334c0 8.533333-5.12 17.066667-11.946667 22.186666-6.826667 1.706667-10.24 3.413333-15.36 3.413334zM512 750.933333c3.413333 0 8.533333 1.706667 11.946667 3.413334l324.266666 167.253333V104.106667c0-10.24-8.533333-20.48-20.48-20.48h-631.466666c-10.24 0-20.48 8.533333-20.48 20.48V921.6l324.266666-167.253333c3.413333-1.706667 8.533333-3.413333 11.946667-3.413334z" fill="#333333" p-id="2073"></path><path d="M670.72 344.746667H353.28c-13.653333 0-25.6-11.946667-25.6-25.6s11.946667-25.6 25.6-25.6h315.733333c13.653333 0 25.6 11.946667 25.6 25.6s-10.24 25.6-23.893333 25.6zM670.72 544.426667H353.28c-13.653333 0-25.6-11.946667-25.6-25.6s11.946667-25.6 25.6-25.6h315.733333c13.653333 0 25.6 11.946667 25.6 25.6s-10.24 25.6-23.893333 25.6z" fill="#333333" p-id="2074"></path><path d="M71.68 880.64V93.866667c0-22.186667 18.773333-40.96 40.96-40.96h578.56c22.186667 0 40.96 18.773333 40.96 40.96v786.773333l-331.093333-170.666667-329.386667 170.666667z" fill="#79C79F" opacity=".3" p-id="2075" data-spm-anchor-id="a313x.7781069.0.i9" class="selected"></path></svg>