<?xml version="1.0" standalone="no"?><!DOCTYPE svg PUBLIC "-//W3C//DTD SVG 1.1//EN" "http://www.w3.org/Graphics/SVG/1.1/DTD/svg11.dtd"><svg t="1656173702036" class="icon" viewBox="0 0 1024 1024" version="1.1" xmlns="http://www.w3.org/2000/svg" p-id="22992" xmlns:xlink="http://www.w3.org/1999/xlink" width="64" height="64"><defs><style type="text/css"></style></defs><path d="M780.757 251.62c-51.482-40.363-112.116-68.076-176.208-81.952-7.59-44.355-46.234-78.274-92.743-78.274-46.501 0-85.144 33.918-92.744 78.274-64.102 13.877-124.726 41.59-176.207 81.952-71.782 56.294-114.635 129.51-114.635 195.844 0 43.644 16.732 75.903 45.412 99.78l44.831 360.894c1.581 12.731 12.393 22.258 25.212 22.258h536.262c12.817 0 23.63-9.527 25.211-22.258l44.831-360.893c28.68-23.878 45.414-56.137 45.414-99.78 0-66.337-42.856-139.551-114.636-195.845zM476.245 160.89c7.848-11.266 20.834-18.659 35.56-18.659 14.726 0 27.712 7.393 35.559 18.66 4.892 6.997 7.808 15.496 7.808 24.708 0 9.883-3.46 18.935-9.072 26.25-7.926 10.318-20.28 17.118-34.295 17.118s-26.368-6.8-34.295-17.118c-5.614-7.314-9.083-16.367-9.083-26.25 0.001-9.212 2.927-17.711 7.818-24.709zM266.13 879.597l-37.003-297.88c3.48 1.187 7.126 1.344 10.753 0.95 2.115-0.198 4.23-0.397 6.246-1.107l21.892-8.064 26.763 306.101H266.13z m70.29 0l-26.853-307.051 29.965 8.974a25.557 25.557 0 0 0 15.577-0.276l24.42-8.422 13.422 306.775H336.42z m145.865 0h-47.815L420.988 571.44l15.793 10.081a25.493 25.493 0 0 0 15.824-0.672l29.679-3.557v302.306z m106.857 0H527.59V571.36l28.028 9.686a25.396 25.396 0 0 0 15.616 0.317l31.369-9.41-13.462 307.644z m41.519 0l13.51-308.79 39.564 10.753a25.703 25.703 0 0 0 15.98-0.87l14.112-5.575-26.633 304.482H630.66z m126.82 0h-28.65l26.713-305.43 15.97 6.444c5.327 2.134 11.16 2.134 16.653 0.513 0.594-0.156 1.236-0.078 1.83-0.317l4.832-1.816-37.348 300.606z m22.407-350.418l-34.167-13.757c-6.03-2.452-12.76-2.452-18.808-0.079l-37.98 14.943-58.263-15.813c-4.585-1.226-9.429-1.186-13.975 0.197l-52.221 15.656-44.366-15.339a25.439 25.439 0 0 0-17.275 0.237l-40.126 15.141-56.266-15.773a25.579 25.579 0 0 0-15.11 0.435l-45 15.497-51.62-15.537a25.444 25.444 0 0 0-16.08 0.475l-36.073 13.242c-43.25-18.54-63.52-45.225-63.52-81.239 0-88.87 106.462-193.868 245.45-226.68 13.974 34.551 47.824 59.023 87.318 59.023 39.503 0 73.342-24.472 87.318-59.062 138.977 32.85 245.448 137.85 245.448 226.72 0.001 36.33-20.664 63.172-64.684 81.713z m-64.805-209.325l-46.837-23.404c-11.562-5.812-25.616-1.107-31.407 10.475-5.78 11.544-1.098 25.618 10.466 31.39l46.837 23.442a23.53 23.53 0 0 0 10.457 2.452c8.578 0 16.85-4.744 20.962-12.927 5.781-11.584 1.086-25.658-10.478-31.428z m-218.409 21.82l-40.697 51.432c-8.025 10.16-6.306 24.866 3.834 32.892a23.342 23.342 0 0 0 14.508 5.06c6.919 0 13.758-3.044 18.384-8.895l40.699-51.431c8.025-10.16 6.305-24.867-3.835-32.893-10.15-8.024-24.867-6.285-32.893 3.836zM337.12 295.423l-44.514 27.555c-10.99 6.8-14.39 21.228-7.58 32.219 4.436 7.195 12.097 11.108 19.933 11.108 4.2 0 8.47-1.146 12.315-3.518l44.513-27.594c10.99-6.8 14.38-21.23 7.57-32.219-6.798-10.991-21.247-14.39-32.237-7.55z" p-id="22993"></path></svg>