<?xml version="1.0" standalone="no"?><!DOCTYPE svg PUBLIC "-//W3C//DTD SVG 1.1//EN" "http://www.w3.org/Graphics/SVG/1.1/DTD/svg11.dtd"><svg t="1656174773819" class="icon" viewBox="0 0 1024 1024" version="1.1" xmlns="http://www.w3.org/2000/svg" p-id="11132" xmlns:xlink="http://www.w3.org/1999/xlink" width="64" height="64"><defs><style type="text/css"></style></defs><path d="M363.52 332.8c-19.456 0-35.84 16.384-35.84 35.84s16.384 35.84 35.84 35.84S399.36 388.096 399.36 368.64s-16.384-35.84-35.84-35.84z m240.64 102.4v-122.88c0-90.112-73.728-163.84-163.84-163.84H276.48c-90.112 0-163.84 73.728-163.84 163.84v122.88c0 90.112 73.728 163.84 163.84 163.84h30.72c14.336 0 32.768 61.44 51.2 61.44 18.432 0 36.864-61.44 51.2-61.44h30.72c90.112 0 163.84-73.728 163.84-163.84z m-214.016 133.12c-7.168 0-24.576 40.96-31.744 40.96-7.168 0-24.576-40.96-30.72-40.96h-40.96c-78.848 0-143.36-64.512-143.36-143.36v-102.4c0-78.848 64.512-143.36 143.36-143.36h143.36c78.848 0 143.36 64.512 143.36 143.36v102.4c0 78.848-64.512 143.36-143.36 143.36h-39.936z m-139.264-235.52c-19.456 0-35.84 16.384-35.84 35.84s16.384 35.84 35.84 35.84S286.72 388.096 286.72 368.64s-16.384-35.84-35.84-35.84z m496.64 102.4H634.88v30.72h102.4c78.848 0 143.36 64.512 143.36 143.36v30.72c0 78.848-64.512 143.36-143.36 143.36h-29.696c-7.168 0-24.576 40.96-31.744 40.96-7.168 0-24.576-40.96-30.72-40.96h-30.72c-78.848 0-143.36-64.512-143.36-143.36v-10.24h-30.72v20.48c0 90.112 73.728 163.84 163.84 163.84h20.48c14.336 0 32.768 61.44 51.2 61.44 18.432 0 36.864-61.44 51.2-61.44h20.48c90.112 0 163.84-73.728 163.84-163.84v-51.2c0-90.112-73.728-163.84-163.84-163.84z m-271.36-102.4c-19.456 0-35.84 16.384-35.84 35.84s16.384 35.84 35.84 35.84S512 388.096 512 368.64s-16.384-35.84-35.84-35.84z" fill="#333333" p-id="11133"></path></svg>