<?xml version="1.0" standalone="no"?><!DOCTYPE svg PUBLIC "-//W3C//DTD SVG 1.1//EN" "http://www.w3.org/Graphics/SVG/1.1/DTD/svg11.dtd"><svg t="1656174304630" class="icon" viewBox="0 0 1024 1024" version="1.1" xmlns="http://www.w3.org/2000/svg" p-id="3117" xmlns:xlink="http://www.w3.org/1999/xlink" width="64" height="64"><defs><style type="text/css"></style></defs><path d="M823.372 605.595l0-403.191c0-60.487-49.226-109.691-105.854-109.691l-402.926 0c-64.347 0-113.551 49.204-113.551 109.691l0 403.191c0 52.533 30.478 121.355 69.381 156.66l160.069 139.141c21.72 19.708 50.677 30.546 81.582 30.546 29.203 0 56.911-9.853 78.072-27.73l161.187-143.454c28.623-24.176 52.578-65.448 64.286-106.25 1.342-2.927 2.234-5.965 2.548-9.005 3.307-13.719 5.206-27.262 5.206-39.908zM765.923 202.405l0 394.274-98.183-54.543 0-391.974 45.941 0c28.803 0 52.242 23.438 52.242 52.242zM416.041 150.163l194.272 0 0 382.767-98 75.147-96.272-58.433 0-399.481zM310.755 150.163l47.815 0 0 396.33-100.079 53.382 0-397.47c0-28.804 23.439-52.242 52.265-52.242zM714.262 716.873l-134.341 112.219c-18.948-14.949-42.813-23.954-68.822-23.954-28.332 0-54.097 10.68-73.737 28.132l-128.35-113.583c-15.194-13.809-29.182-36.891-38.634-60.89l114.246-61.069 112.204 68.934c9.743 6.435 22.435 6.324 32.066-0.291l101.329-77.447c1.81 0.58 3.664 0.983 5.609 1.207l118.696 65.939c-9.652 24.113-24.31 47.304-40.265 60.803z" p-id="3118"></path></svg>