<?xml version="1.0" standalone="no"?><!DOCTYPE svg PUBLIC "-//W3C//DTD SVG 1.1//EN" "http://www.w3.org/Graphics/SVG/1.1/DTD/svg11.dtd"><svg t="1656174855214" class="icon" viewBox="0 0 1037 1024" version="1.1" xmlns="http://www.w3.org/2000/svg" p-id="20812" xmlns:xlink="http://www.w3.org/1999/xlink" width="64.8125" height="64"><defs><style type="text/css"></style></defs><path d="M785.858848 762.475988c-132.367621 0-241.132118-102.92168-250.568731-232.935945a234.929922 234.929922 0 0 1-33.468675 0c-9.401834 130.014265-118.247481 232.935945-250.568731 232.935945C112.717672 762.475988 0.011593 649.781501 0.011593 511.246462s112.706079-251.241119 251.241118-251.241118h2.318578C256.272433 116.160761 374.137349 0 518.584762 0S780.862312 116.172354 783.563455 260.016936h2.318578c138.535039 0 251.241119 112.706079 251.241119 251.241119s-112.729265 251.217933-251.264304 251.217933zM585.846711 472.085679l-1.611412 34.778671c-0.092743 1.472297-0.220265 2.944594-0.220264 4.440077 0 111.291747 90.552066 201.843813 201.83222 201.843813S987.714253 622.549802 987.714253 511.246462s-90.552066-201.855406-201.855405-201.855406a201.936556 201.936556 0 0 0-25.017458 1.715748l-30.280629 3.814061 2.677957-30.44293c0.556459-6.387683 0.985396-12.844922 0.985396-19.37172 0-118.919869-96.74267-215.62776-215.627759-215.627759S302.922223 146.151568 302.922223 265.071437c0 6.561576 0.428937 13.007223 0.985396 19.406498l2.631586 30.44293-37.213178-4.637156c-5.85441-0.52168-11.940677-0.799909-18.084908-0.79991-111.291747 0-201.855406 90.552066-201.855406 201.855406s90.552066 201.843813 201.855406 201.843813 201.83222-90.552066 201.83222-201.843813c0-1.56504-0.115929-3.095302-0.220265-4.637156l-1.541855-34.61637 30.257444 5.239986c26.570905 4.637156 47.53085 4.637156 74.055383 0z" fill="" p-id="20813"></path><path d="M518.549983 530.142873a269.395585 269.395585 0 0 1-162.84533-54.208355 24.692856 24.692856 0 0 1 29.608242-39.520163 222.305264 222.305264 0 0 0 266.555326-0.08115 24.692856 24.692856 0 1 1 29.654614 39.473791A269.279656 269.279656 0 0 1 518.549983 530.142873zM589.104313 1024H447.995653c-54.277912 0-95.224001-27.301257-95.224001-63.49426V818.214604c0 0.336194-1.159289-1.286811-4.022733-3.361938l-91.734541-67.238764 29.225676-39.809985 91.711355 67.238764c15.60403 11.442183 24.205955 26.779577 24.205955 43.183516v142.279543c1.623005 3.385124 17.853051 14.050583 45.838289 14.050583h141.10866c27.99683 0 44.226876-10.723424 45.96581-14.978014l-0.115929-141.433262c0-16.40394 8.613517-31.741334 24.229141-43.195109l91.676577-67.238764 29.225676 39.809985-91.711355 67.238764c-2.898223 2.121499-3.999547 3.779282-4.173441 4.231405l0.115929 141.433262c0.011593 36.274154-40.922903 63.57541-95.212408 63.57541z" fill="" p-id="20814"></path></svg>