<?xml version="1.0" standalone="no"?><!DOCTYPE svg PUBLIC "-//W3C//DTD SVG 1.1//EN" "http://www.w3.org/Graphics/SVG/1.1/DTD/svg11.dtd"><svg t="1656174015458" class="icon" viewBox="0 0 1024 1024" version="1.1" xmlns="http://www.w3.org/2000/svg" p-id="1885" xmlns:xlink="http://www.w3.org/1999/xlink" width="64" height="64"><defs><style type="text/css"></style></defs><path d="M551.988 989.634c-92.012 0-166.886-70.028-166.886-156.11l0-524.197c0-67.728 55.103-122.809 122.832-122.809 67.728 0 122.786 55.081 122.786 122.809l0 453.718c0 16.007-12.965 28.994-28.973 28.994-16.006 0-28.972-12.987-28.972-28.994l0-453.718c0-35.759-29.085-64.843-64.843-64.843s-64.844 29.085-64.844 64.843l0 524.198c0 54.11 48.835 98.144 108.898 98.144 83.826 0 126.348-56.23 126.348-167.068l0-505.418c0-92.123-74.942-167.044-167.067-167.044-92.124 0-167.067 74.922-167.067 167.044l0 505.418c0 16.009-12.964 28.994-28.972 28.994-16.031 0-28.994-12.986-28.994-28.994l0-505.418c0-124.07 100.962-225.009 225.034-225.009 124.07 0 225.034 100.939 225.034 225.009l0 505.418c-0.001 143.011-67.166 225.034-184.315 225.034z" p-id="1886"></path></svg>